# Blender v2.72 (sub 0) OBJ File: 'projector.blend'
# www.blender.org
mtllib projector.mtl
o Cone_Cone.003
v -0.247279 0.000000 -0.598069
v 0.000000 -0.000000 0.053394
v -0.242527 0.048242 -0.598069
v -0.228456 0.094629 -0.598069
v -0.205605 0.137381 -0.598069
v -0.174852 0.174852 -0.598069
v -0.137381 0.205605 -0.598069
v -0.094629 0.228456 -0.598069
v -0.048242 0.242527 -0.598069
v -0.000000 0.247279 -0.598069
v 0.048242 0.242527 -0.598069
v 0.094629 0.228456 -0.598069
v 0.137381 0.205605 -0.598069
v 0.174852 0.174852 -0.598069
v 0.205605 0.137381 -0.598069
v 0.228456 0.094629 -0.598069
v 0.242527 0.048242 -0.598069
v 0.247278 -0.000000 -0.598069
v 0.242527 -0.048242 -0.598069
v 0.228455 -0.094629 -0.598069
v 0.205604 -0.137381 -0.598069
v 0.174852 -0.174852 -0.598069
v 0.137380 -0.205605 -0.598069
v 0.094629 -0.228456 -0.598069
v 0.048241 -0.242527 -0.598069
v -0.000000 -0.247278 -0.598069
v -0.048242 -0.242527 -0.598069
v -0.094630 -0.228455 -0.598069
v -0.137381 -0.205604 -0.598069
v -0.174853 -0.174852 -0.598069
v -0.205605 -0.137380 -0.598069
v -0.228456 -0.094629 -0.598069
v -0.242527 -0.048241 -0.598069
vn -0.774500 -0.320800 -0.545100
vn 0.000000 0.000000 1.000000
vn -0.822200 -0.163500 -0.545100
vn -0.838300 0.000000 -0.545100
vn -0.822200 0.163500 -0.545100
vn -0.697000 -0.465700 -0.545100
vn -0.592800 -0.592800 -0.545100
vn -0.465700 -0.697000 -0.545100
vn -0.320800 -0.774500 -0.545100
vn -0.163500 -0.822200 -0.545100
vn 0.000000 -0.838300 -0.545100
vn 0.163500 -0.822200 -0.545100
vn 0.320800 -0.774500 -0.545100
vn 0.465700 -0.697000 -0.545100
vn 0.592800 -0.592800 -0.545100
vn 0.697000 -0.465700 -0.545100
vn 0.774500 -0.320800 -0.545100
vn 0.822200 -0.163500 -0.545100
vn 0.838300 0.000000 -0.545100
vn 0.822200 0.163500 -0.545100
vn 0.774500 0.320800 -0.545100
vn 0.697000 0.465700 -0.545100
vn 0.592800 0.592800 -0.545100
vn 0.465700 0.697000 -0.545100
vn 0.320800 0.774500 -0.545100
vn 0.163500 0.822200 -0.545100
vn 0.000000 0.838300 -0.545100
vn -0.163500 0.822200 -0.545100
vn -0.320800 0.774500 -0.545100
vn -0.465700 0.697000 -0.545100
vn -0.592800 0.592800 -0.545100
vn -0.697000 0.465700 -0.545100
vn -0.774500 0.320800 -0.545100
usemtl Material.001
s 1
f 32//1 2//2 33//3
f 1//4 2//2 3//5
f 31//6 2//2 32//1
f 30//7 2//2 31//6
f 29//8 2//2 30//7
f 28//9 2//2 29//8
f 27//10 2//2 28//9
f 26//11 2//2 27//10
f 25//12 2//2 26//11
f 24//13 2//2 25//12
f 23//14 2//2 24//13
f 22//15 2//2 23//14
f 21//16 2//2 22//15
f 20//17 2//2 21//16
f 19//18 2//2 20//17
f 18//19 2//2 19//18
f 17//20 2//2 18//19
f 16//21 2//2 17//20
f 15//22 2//2 16//21
f 14//23 2//2 15//22
f 13//24 2//2 14//23
f 12//25 2//2 13//24
f 11//26 2//2 12//25
f 10//27 2//2 11//26
f 9//28 2//2 10//27
f 8//29 2//2 9//28
f 7//30 2//2 8//29
f 6//31 2//2 7//30
f 5//32 2//2 6//31
f 4//33 2//2 5//32
f 33//3 2//2 1//4
f 3//5 2//2 4//33
f 1//4 3//5 4//33 5//32 6//31 7//30 8//29 9//28 10//27 11//26 12//25 13//24 14//23 15//22 16//21 17//20 18//19 19//18 20//17 21//16 22//15 23//14 24//13 25//12 26//11 27//10 28//9 29//8 30//7 31//6 32//1 33//3
o Cube
v -0.466452 0.244411 -0.377697
v 0.466452 0.244411 -0.377697
v 0.466452 0.244411 0.377697
v -0.466452 0.244411 0.377697
v -0.466452 -0.244411 -0.377697
v 0.466453 -0.244411 -0.377697
v 0.466452 -0.244411 0.377697
v -0.466452 -0.244411 0.377697
vn 0.000000 -1.000000 0.000000
vn 0.000000 1.000000 -0.000000
vn -0.000000 0.000000 1.000000
vn -1.000000 -0.000000 -0.000000
vn 0.000000 -0.000000 -1.000000
vn 1.000000 0.000000 0.000000
usemtl Material
s off
f 34//34 35//34 36//34 37//34
f 38//35 41//35 40//35 39//35
f 34//36 38//36 39//36 35//36
f 35//37 39//37 40//37 36//37
f 36//38 40//38 41//38 37//38
f 38//39 34//39 37//39 41//39
