# Blender v2.79 (sub 0) OBJ File: ''
# www.blender.org
mtllib primitive_box_z_up_-x_forward.mtl
o Cube_Cube.001
v 1.000000 -1.000000 1.000000
v -1.000000 -1.000000 -1.000000
v 1.000000 -1.000000 -1.000000
v -1.000000 -1.000000 1.000000
v -1.000000 1.000000 -1.000000
v -1.000000 1.000000 1.000000
v 1.000000 1.000000 -1.000000
v 1.000000 1.000000 1.000000
vt 0.333333 0.666667
vt 0.666667 0.333333
vt 0.666667 0.666667
vt 0.000000 0.666667
vt 0.333333 0.333333
vt 0.333333 0.666667
vt 0.000000 0.333333
vt 0.333333 0.000000
vt 0.333333 0.000000
vt 0.666667 0.333333
vt 0.333333 0.333333
vt 0.666667 0.333333
vt 1.000000 0.000000
vt 1.000000 0.333333
vt 0.333333 1.000000
vt 0.000000 0.666667
vt 0.333333 0.666667
vt 0.333333 0.333333
vt 0.000000 0.000000
vt 0.666667 0.000000
vt 0.666667 0.000000
vt 0.000000 1.000000
vn 0.0000 -1.0000 -0.0000
vn -1.0000 0.0000 0.0000
vn 0.0000 1.0000 -0.0000
vn 1.0000 0.0000 -0.0000
vn -0.0000 0.0000 -1.0000
vn 0.0000 0.0000 1.0000
usemtl None.001
s 1
f 1/1/1 2/2/1 3/3/1
f 4/4/2 5/5/2 2/6/2
f 6/7/3 7/8/3 5/5/3
f 8/9/4 3/10/4 7/11/4
f 5/12/5 3/13/5 2/14/5
f 4/15/6 8/16/6 6/17/6
f 1/1/1 4/18/1 2/2/1
f 4/4/2 6/7/2 5/5/2
f 6/7/3 8/19/3 7/8/3
f 8/9/4 1/20/4 3/10/4
f 5/12/5 7/21/5 3/13/5
f 4/15/6 1/22/6 8/16/6
