# Blender v2.67 (sub 0) OBJ File: ''
# www.blender.org
mtllib cyberspace.mtl
o Cube
v -49.999996 0.000000 49.999996
v -49.999996 0.000000 -49.999996
v 49.999996 0.000000 -49.999996
v 49.999996 0.000000 49.999996
v -49.999996 99.999992 49.999996
v -49.999996 99.999992 -49.999996
v 49.999996 99.999992 -49.999996
v 49.999996 99.999992 49.999996
vt 0.000770 0.999230
vt 0.999230 0.000770
vt 0.999230 0.999230
vt 0.000770 0.000770
vn 1.000000 0.000000 -0.000000
vn 0.000000 0.000000 1.000000
vn -1.000000 -0.000000 -0.000000
vn 0.000000 0.000000 -1.000000
vn 0.000000 1.000000 -0.000000
vn 0.000000 -1.000000 0.000000
usemtl Material
s off
f 5/1/1 2/2/1 6/3/1
f 6/1/2 3/2/2 7/3/2
f 7/3/3 4/4/3 8/1/3
f 8/3/4 1/4/4 5/1/4
f 1/4/5 3/3/5 2/1/5
f 8/2/6 6/1/6 7/3/6
f 1/4/1 2/2/1 5/1/1
f 2/4/2 3/2/2 6/1/2
f 3/2/3 4/4/3 7/3/3
f 4/2/4 1/4/4 8/3/4
f 4/2/5 3/3/5 1/4/5
f 5/4/6 6/1/6 8/2/6
