# Blender v2.79 (sub 0) OBJ File: ''
# www.blender.org
mtllib arrow.mtl
o Cone_Cone.001
v 0.000000 2.000000 -1.000000
v -0.195090 2.000000 -0.980785
v -0.382683 2.000000 -0.923880
v -0.555570 2.000000 -0.831470
v -0.707107 2.000000 -0.707107
v -0.831470 2.000000 -0.555570
v -0.923880 2.000000 -0.382684
v -0.980785 2.000000 -0.195091
v -1.000000 2.000000 -0.000000
v -0.980785 2.000000 0.195090
v -0.923880 2.000000 0.382683
v -0.831470 2.000000 0.555570
v -0.707107 2.000000 0.707107
v -0.555570 2.000000 0.831470
v -0.382683 2.000000 0.923880
v -0.195090 2.000000 0.980785
v 0.000000 2.000000 1.000000
v 0.195091 2.000000 0.980785
v 0.382684 2.000000 0.923879
v 0.555571 2.000000 0.831469
v 0.707107 2.000000 0.707106
v 0.831470 2.000000 0.555570
v 0.923880 2.000000 0.382683
v 0.000000 0.000000 0.000000
v 0.980785 2.000000 0.195089
v 1.000000 2.000000 -0.000001
v 0.980785 2.000000 -0.195091
v 0.923879 2.000000 -0.382684
v 0.831469 2.000000 -0.555571
v 0.707106 2.000000 -0.707108
v 0.555569 2.000000 -0.831470
v 0.382682 2.000000 -0.923880
v 0.195089 2.000000 -0.980786
v 0.000000 2.000000 -1.000000
v -0.195090 2.000000 -0.980785
v -0.382683 2.000000 -0.923880
v -0.555570 2.000000 -0.831470
v -0.707107 2.000000 -0.707107
v -0.831470 2.000000 -0.555570
v -0.923880 2.000000 -0.382684
v -0.980785 2.000000 -0.195091
v -1.000000 2.000000 -0.000000
v -0.980785 2.000000 0.195090
v -0.923880 2.000000 0.382683
v -0.831470 2.000000 0.555570
v -0.707107 2.000000 0.707107
v -0.555570 2.000000 0.831470
v -0.382683 2.000000 0.923880
v -0.195090 2.000000 0.980785
v 0.000000 2.000000 1.000000
v 0.195091 2.000000 0.980785
v 0.382684 2.000000 0.923879
v 0.555571 2.000000 0.831469
v 0.707107 2.000000 0.707106
v 0.831470 2.000000 0.555570
v 0.923880 2.000000 0.382683
v 0.980785 2.000000 0.195089
v 1.000000 2.000000 -0.000001
v 0.980785 2.000000 -0.195091
v 0.923879 2.000000 -0.382684
v 0.831469 2.000000 -0.555571
v 0.707106 2.000000 -0.707108
v 0.555569 2.000000 -0.831470
v 0.382682 2.000000 -0.923880
v 0.195089 2.000000 -0.980786
v -0.000000 2.000000 -0.500000
v -0.097545 2.000000 -0.490393
v -0.191342 2.000000 -0.461940
v -0.277785 2.000000 -0.415735
v -0.353554 2.000000 -0.353554
v -0.415735 2.000000 -0.277785
v -0.461940 2.000000 -0.191342
v -0.490393 2.000000 -0.097545
v -0.500000 2.000000 -0.000000
v -0.490393 2.000000 0.097545
v -0.461940 2.000000 0.191341
v -0.415735 2.000000 0.277785
v -0.353554 2.000000 0.353553
v -0.277785 2.000000 0.415735
v -0.191342 2.000000 0.461940
v -0.097545 2.000000 0.490392
v -0.000000 2.000000 0.500000
v 0.097545 2.000000 0.490392
v 0.191342 2.000000 0.461939
v 0.277785 2.000000 0.415734
v 0.353553 2.000000 0.353553
v 0.415735 2.000000 0.277785
v 0.461940 2.000000 0.191341
v 0.490393 2.000000 0.097545
v 0.500000 2.000000 -0.000001
v 0.490392 2.000000 -0.097546
v 0.461939 2.000000 -0.191342
v 0.415734 2.000000 -0.277786
v 0.353553 2.000000 -0.353554
v 0.277784 2.000000 -0.415735
v 0.191341 2.000000 -0.461940
v 0.097544 2.000000 -0.490393
v -0.000000 4.000000 -0.500000
v -0.097545 4.000000 -0.490393
v -0.191342 4.000000 -0.461940
v -0.277785 4.000000 -0.415735
v -0.353554 4.000000 -0.353554
v -0.415735 4.000000 -0.277785
v -0.461940 4.000000 -0.191342
v -0.490393 4.000000 -0.097545
v -0.500000 4.000000 -0.000000
v -0.490393 4.000000 0.097545
v -0.461940 4.000000 0.191341
v -0.415735 4.000000 0.277785
v -0.353554 4.000000 0.353553
v -0.277785 4.000000 0.415735
v -0.191342 4.000000 0.461940
v -0.097545 4.000000 0.490392
v -0.000000 4.000000 0.500000
v 0.097545 4.000000 0.490392
v 0.191342 4.000000 0.461939
v 0.277785 4.000000 0.415734
v 0.353553 4.000000 0.353553
v 0.415735 4.000000 0.277785
v 0.461940 4.000000 0.191341
v 0.490393 4.000000 0.097545
v 0.500000 4.000000 -0.000001
v 0.490392 4.000000 -0.097546
v 0.461939 4.000000 -0.191342
v 0.415734 4.000000 -0.277786
v 0.353553 4.000000 -0.353554
v 0.277784 4.000000 -0.415735
v 0.191341 4.000000 -0.461940
v 0.097544 4.000000 -0.490393
v -0.000000 4.000000 -0.500000
v -0.097545 4.000000 -0.490393
v -0.191342 4.000000 -0.461940
v -0.277785 4.000000 -0.415735
v -0.353554 4.000000 -0.353554
v -0.415735 4.000000 -0.277785
v -0.461940 4.000000 -0.191342
v -0.490393 4.000000 -0.097545
v -0.500000 4.000000 -0.000000
v -0.490393 4.000000 0.097545
v -0.461940 4.000000 0.191341
v -0.415735 4.000000 0.277785
v -0.353554 4.000000 0.353553
v -0.277785 4.000000 0.415735
v -0.191342 4.000000 0.461940
v -0.097545 4.000000 0.490392
v -0.000000 4.000000 0.500000
v 0.097545 4.000000 0.490392
v 0.191342 4.000000 0.461939
v 0.277785 4.000000 0.415734
v 0.353553 4.000000 0.353553
v 0.415735 4.000000 0.277785
v 0.461940 4.000000 0.191341
v 0.490393 4.000000 0.097545
v 0.500000 4.000000 -0.000001
v 0.490392 4.000000 -0.097546
v 0.461939 4.000000 -0.191342
v 0.415734 4.000000 -0.277786
v 0.353553 4.000000 -0.353554
v 0.277784 4.000000 -0.415735
v 0.191341 4.000000 -0.461940
v 0.097544 4.000000 -0.490393
v -0.000000 2.000000 -0.500000
v -0.097545 2.000000 -0.490393
v -0.191342 2.000000 -0.461940
v -0.277785 2.000000 -0.415735
v -0.353554 2.000000 -0.353554
v -0.415735 2.000000 -0.277785
v -0.461940 2.000000 -0.191342
v -0.490393 2.000000 -0.097545
v -0.500000 2.000000 -0.000000
v -0.490393 2.000000 0.097545
v -0.461940 2.000000 0.191341
v -0.415735 2.000000 0.277785
v -0.353554 2.000000 0.353553
v -0.277785 2.000000 0.415735
v -0.191342 2.000000 0.461940
v -0.097545 2.000000 0.490392
v -0.000000 2.000000 0.500000
v 0.097545 2.000000 0.490392
v 0.191342 2.000000 0.461939
v 0.277785 2.000000 0.415734
v 0.353553 2.000000 0.353553
v 0.415735 2.000000 0.277785
v 0.461940 2.000000 0.191341
v 0.490393 2.000000 0.097545
v 0.500000 2.000000 -0.000001
v 0.490392 2.000000 -0.097546
v 0.461939 2.000000 -0.191342
v 0.415734 2.000000 -0.277786
v 0.353553 2.000000 -0.353554
v 0.277784 2.000000 -0.415735
v 0.191341 2.000000 -0.461940
v 0.097544 2.000000 -0.490393
vn 0.0000 -0.4472 -0.8944
vn 0.0000 -1.0000 0.0000
vn -0.1745 -0.4472 -0.8772
vn -0.3423 -0.4472 -0.8263
vn -0.4969 -0.4472 -0.7437
vn -0.6324 -0.4472 -0.6324
vn -0.7437 -0.4472 -0.4969
vn -0.8263 -0.4472 -0.3423
vn -0.8772 -0.4472 -0.1745
vn -0.8944 -0.4472 0.0000
vn -0.8772 -0.4472 0.1745
vn -0.8263 -0.4472 0.3423
vn -0.7437 -0.4472 0.4969
vn -0.6324 -0.4472 0.6324
vn -0.4969 -0.4472 0.7437
vn -0.3423 -0.4472 0.8263
vn -0.1745 -0.4472 0.8772
vn 0.0000 -0.4472 0.8944
vn 0.1745 -0.4472 0.8772
vn 0.3423 -0.4472 0.8263
vn 0.4969 -0.4472 0.7437
vn 0.6324 -0.4472 0.6324
vn 0.7437 -0.4472 0.4969
vn 0.8263 -0.4472 0.3423
vn 0.8772 -0.4472 0.1745
vn 0.8944 -0.4472 0.0000
vn 0.8772 -0.4472 -0.1745
vn 0.8263 -0.4472 -0.3423
vn 0.7437 -0.4472 -0.4969
vn 0.6324 -0.4472 -0.6324
vn 0.4969 -0.4472 -0.7437
vn 0.3423 -0.4472 -0.8263
vn 0.1745 -0.4472 -0.8772
vn 0.3307 0.4994 0.8007
vn 0.0000 1.0000 0.0000
vn -0.5906 0.6429 0.4877
vn -0.5634 0.6016 0.5662
vn 0.4025 0.5169 0.7555
vn -0.5211 0.5673 0.6376
vn 0.5211 0.5673 0.6376
vn -0.4667 0.5393 0.7009
vn 0.5634 0.6016 0.5662
vn -0.4025 0.5169 0.7555
vn 0.5906 0.6429 0.4876
vn -0.2530 0.4863 0.8364
vn 0.5988 0.6920 0.4032
vn -0.1797 0.9835 0.0222
vn 0.5378 0.8120 0.2264
vn -0.0862 0.4718 0.8775
vn -0.3366 0.9390 0.0712
vn 0.4569 0.8780 0.1427
vn 0.0862 0.4718 0.8775
vn -0.5378 0.8120 0.2264
vn 0.3365 0.9389 0.0713
vn 0.1710 0.4771 0.8620
vn -0.5831 0.7487 0.3151
vn 0.0000 1.0000 0.0045
vn 0.2530 0.4863 0.8364
vn -0.5988 0.6920 0.4032
vn -0.0978 0.0000 0.9952
vn -0.1710 0.4772 0.8620
vn -0.9783 0.0000 0.2069
vn 0.9546 0.0000 0.2979
vn 0.0000 0.0000 1.0000
vn 0.0000 0.4700 0.8826
vn -0.9546 0.0000 0.2979
vn -0.4569 0.8780 0.1426
vn 0.9782 0.0000 0.2073
vn 0.0978 0.0000 0.9952
vn -0.9216 0.0000 0.3882
vn 0.9924 0.0000 0.1229
vn 0.1797 0.9835 0.0222
vn 0.1946 0.0000 0.9809
vn -0.8798 0.0000 0.4754
vn -0.0001 0.0000 1.0000
vn 0.2896 0.0000 0.9572
vn -0.8294 0.0000 0.5586
vn 0.3818 0.0000 0.9243
vn -0.7711 0.0000 0.6366
vn 0.4702 0.0000 0.8825
vn -0.7053 0.0000 0.7088
vn 0.5542 0.0000 0.8324
vn 0.4667 0.5393 0.7009
vn -0.6328 0.0000 0.7743
vn 0.6328 0.0000 0.7743
vn -0.5542 0.0000 0.8324
vn 0.7053 0.0000 0.7088
vn -0.4702 0.0000 0.8825
vn 0.7711 0.0000 0.6367
vn -0.3818 0.0000 0.9243
vn -0.3307 0.4994 0.8007
vn 0.8294 0.0000 0.5585
vn -0.2896 0.0000 0.9572
vn 0.8798 0.0000 0.4754
vn 0.5831 0.7488 0.3151
vn -0.1946 0.0000 0.9809
vn -0.9925 0.0000 0.1223
vn 0.9216 0.0000 0.3880
vn 0.0000 0.6839 0.7295
vn 0.0000 0.6840 0.7295
vn 0.0000 0.6839 0.7296
usemtl Material.001
s 1
f 1//1 24//2 2//3
f 2//3 24//2 3//4
f 3//4 24//2 4//5
f 4//5 24//2 5//6
f 5//6 24//2 6//7
f 6//7 24//2 7//8
f 7//8 24//2 8//9
f 8//9 24//2 9//10
f 9//10 24//2 10//11
f 10//11 24//2 11//12
f 11//12 24//2 12//13
f 12//13 24//2 13//14
f 13//14 24//2 14//15
f 14//15 24//2 15//16
f 15//16 24//2 16//17
f 16//17 24//2 17//18
f 17//18 24//2 18//19
f 18//19 24//2 19//20
f 19//20 24//2 20//21
f 20//21 24//2 21//22
f 21//22 24//2 22//23
f 22//23 24//2 23//24
f 23//24 24//2 25//25
f 25//25 24//2 26//26
f 26//26 24//2 27//27
f 27//27 24//2 28//28
f 28//28 24//2 29//29
f 29//29 24//2 30//30
f 30//30 24//2 31//31
f 31//31 24//2 32//32
f 32//32 24//2 33//33
f 33//33 24//2 1//1
f 86//34 53//35 54//35
f 73//36 40//35 41//35
f 55//35 86//34 54//35
f 74//37 41//35 42//35
f 56//35 87//38 55//35
f 75//39 42//35 43//35
f 89//40 56//35 57//35
f 76//41 43//35 44//35
f 90//42 57//35 58//35
f 77//43 44//35 45//35
f 59//35 90//42 58//35
f 46//35 77//43 45//35
f 60//35 91//44 59//35
f 79//45 46//35 47//35
f 61//35 92//46 60//35
f 48//35 79//45 47//35
f 67//47 34//35 35//35
f 94//48 61//35 62//35
f 81//49 48//35 49//35
f 36//35 67//47 35//35
f 63//35 94//48 62//35
f 50//35 81//49 49//35
f 37//35 68//50 36//35
f 64//35 95//51 63//35
f 83//52 50//35 51//35
f 70//53 37//35 38//35
f 65//35 96//54 64//35
f 84//55 51//35 52//35
f 71//56 38//35 39//35
f 66//57 65//35 34//35
f 85//58 52//35 53//35
f 72//59 39//35 40//35
f 113//60 80//61 81//49
f 100//62 67//47 68//50
f 127//63 94//48 95//51
f 114//64 81//49 82//65
f 101//66 68//50 69//67
f 128//68 95//51 96//54
f 115//69 82//65 83//52
f 102//70 69//67 70//53
f 129//71 96//54 97//72
f 116//73 83//52 84//55
f 103//74 70//53 71//56
f 98//75 97//72 66//57
f 117//76 84//55 85//58
f 104//77 71//56 72//59
f 118//78 85//58 86//34
f 105//79 72//59 73//36
f 119//80 86//34 87//38
f 106//81 73//36 74//37
f 120//82 87//38 88//83
f 107//84 74//37 75//39
f 121//85 88//83 89//40
f 108//86 75//39 76//41
f 122//87 89//40 90//42
f 109//88 76//41 77//43
f 123//89 90//42 91//44
f 110//90 77//43 78//91
f 124//92 91//44 92//46
f 111//93 78//91 79//45
f 125//94 92//46 93//95
f 112//96 79//45 80//61
f 99//97 66//57 67//47
f 126//98 93//95 94//48
f 121//85 152//99 120//82
f 145//99 153//99 161//99
f 108//86 139//99 107//84
f 122//87 153//99 121//85
f 109//88 140//99 108//86
f 123//89 154//99 122//87
f 110//90 141//99 109//88
f 124//92 155//99 123//89
f 111//93 142//99 110//90
f 125//94 156//99 124//92
f 112//96 143//99 111//93
f 99//97 130//100 98//75
f 126//98 157//99 125//94
f 113//60 144//99 112//96
f 100//62 131//99 99//97
f 127//63 158//99 126//98
f 114//64 145//99 113//60
f 101//66 132//99 100//62
f 128//68 159//101 127//63
f 115//69 146//99 114//64
f 102//70 133//99 101//66
f 129//71 160//101 128//68
f 116//73 147//101 115//69
f 103//74 134//99 102//70
f 98//75 161//99 129//71
f 117//76 148//101 116//73
f 104//77 135//99 103//74
f 118//78 149//99 117//76
f 105//79 136//99 104//77
f 119//80 150//99 118//78
f 106//81 137//99 105//79
f 120//82 151//99 119//80
f 107//84 138//101 106//81
f 71//56 168//64 167//64
f 85//58 182//64 181//64
f 72//59 169//64 168//64
f 86//34 183//64 182//64
f 73//36 170//64 169//64
f 87//38 184//64 183//64
f 74//37 171//64 170//64
f 88//83 185//64 184//64
f 75//39 172//64 171//64
f 89//40 186//64 185//64
f 76//41 173//64 172//64
f 90//42 187//64 186//64
f 77//43 174//64 173//64
f 91//44 188//64 187//64
f 78//91 175//64 174//64
f 92//46 189//64 188//64
f 79//45 176//64 175//64
f 66//57 163//64 162//64
f 93//95 190//64 189//64
f 80//61 177//64 176//64
f 67//47 164//64 163//64
f 94//48 191//64 190//64
f 81//49 178//64 177//64
f 68//50 165//64 164//64
f 95//51 192//64 191//64
f 82//65 179//64 178//64
f 69//67 166//64 165//64
f 96//54 193//64 192//64
f 83//52 180//64 179//64
f 70//53 167//64 166//64
f 97//72 162//64 193//64
f 84//55 181//64 180//64
f 86//34 85//58 53//35
f 73//36 72//59 40//35
f 55//35 87//38 86//34
f 74//37 73//36 41//35
f 56//35 88//83 87//38
f 75//39 74//37 42//35
f 89//40 88//83 56//35
f 76//41 75//39 43//35
f 90//42 89//40 57//35
f 77//43 76//41 44//35
f 59//35 91//44 90//42
f 46//35 78//91 77//43
f 60//35 92//46 91//44
f 79//45 78//91 46//35
f 61//35 93//95 92//46
f 48//35 80//61 79//45
f 67//47 66//57 34//35
f 94//48 93//95 61//35
f 81//49 80//61 48//35
f 36//35 68//50 67//47
f 63//35 95//51 94//48
f 50//35 82//65 81//49
f 37//35 69//67 68//50
f 64//35 96//54 95//51
f 83//52 82//65 50//35
f 70//53 69//67 37//35
f 65//35 97//72 96//54
f 84//55 83//52 51//35
f 71//56 70//53 38//35
f 66//57 97//72 65//35
f 85//58 84//55 52//35
f 72//59 71//56 39//35
f 113//60 112//96 80//61
f 100//62 99//97 67//47
f 127//63 126//98 94//48
f 114//64 113//60 81//49
f 101//66 100//62 68//50
f 128//68 127//63 95//51
f 115//69 114//64 82//65
f 102//70 101//66 69//67
f 129//71 128//68 96//54
f 116//73 115//69 83//52
f 103//74 102//70 70//53
f 98//75 129//71 97//72
f 117//76 116//73 84//55
f 104//77 103//74 71//56
f 118//78 117//76 85//58
f 105//79 104//77 72//59
f 119//80 118//78 86//34
f 106//81 105//79 73//36
f 120//82 119//80 87//38
f 107//84 106//81 74//37
f 121//85 120//82 88//83
f 108//86 107//84 75//39
f 122//87 121//85 89//40
f 109//88 108//86 76//41
f 123//89 122//87 90//42
f 110//90 109//88 77//43
f 124//92 123//89 91//44
f 111//93 110//90 78//91
f 125//94 124//92 92//46
f 112//96 111//93 79//45
f 99//97 98//75 66//57
f 126//98 125//94 93//95
f 121//85 153//99 152//99
f 161//99 130//100 131//99
f 131//99 132//99 133//99
f 133//99 134//99 135//99
f 135//99 136//99 133//99
f 136//99 137//99 133//99
f 137//99 138//101 139//99
f 139//99 140//99 137//99
f 140//99 141//99 137//99
f 141//99 142//99 143//99
f 143//99 144//99 145//99
f 145//99 146//99 149//99
f 146//99 147//101 149//99
f 147//101 148//101 149//99
f 149//99 150//99 151//99
f 151//99 152//99 153//99
f 153//99 154//99 155//99
f 155//99 156//99 157//99
f 157//99 158//99 161//99
f 158//99 159//101 161//99
f 159//101 160//101 161//99
f 161//99 131//99 133//99
f 141//99 143//99 137//99
f 143//99 145//99 137//99
f 149//99 151//99 153//99
f 153//99 155//99 161//99
f 155//99 157//99 161//99
f 161//99 133//99 137//99
f 145//99 149//99 153//99
f 161//99 137//99 145//99
f 108//86 140//99 139//99
f 122//87 154//99 153//99
f 109//88 141//99 140//99
f 123//89 155//99 154//99
f 110//90 142//99 141//99
f 124//92 156//99 155//99
f 111//93 143//99 142//99
f 125//94 157//99 156//99
f 112//96 144//99 143//99
f 99//97 131//99 130//100
f 126//98 158//99 157//99
f 113//60 145//99 144//99
f 100//62 132//99 131//99
f 127//63 159//101 158//99
f 114//64 146//99 145//99
f 101//66 133//99 132//99
f 128//68 160//101 159//101
f 115//69 147//101 146//99
f 102//70 134//99 133//99
f 129//71 161//99 160//101
f 116//73 148//101 147//101
f 103//74 135//99 134//99
f 98//75 130//100 161//99
f 117//76 149//99 148//101
f 104//77 136//99 135//99
f 118//78 150//99 149//99
f 105//79 137//99 136//99
f 119//80 151//99 150//99
f 106//81 138//101 137//99
f 120//82 152//99 151//99
f 107//84 139//99 138//101
f 71//56 72//59 168//64
f 85//58 86//34 182//64
f 72//59 73//36 169//64
f 86//34 87//38 183//64
f 73//36 74//37 170//64
f 87//38 88//83 184//64
f 74//37 75//39 171//64
f 88//83 89//40 185//64
f 75//39 76//41 172//64
f 89//40 90//42 186//64
f 76//41 77//43 173//64
f 90//42 91//44 187//64
f 77//43 78//91 174//64
f 91//44 92//46 188//64
f 78//91 79//45 175//64
f 92//46 93//95 189//64
f 79//45 80//61 176//64
f 66//57 67//47 163//64
f 93//95 94//48 190//64
f 80//61 81//49 177//64
f 67//47 68//50 164//64
f 94//48 95//51 191//64
f 81//49 82//65 178//64
f 68//50 69//67 165//64
f 95//51 96//54 192//64
f 82//65 83//52 179//64
f 69//67 70//53 166//64
f 96//54 97//72 193//64
f 83//52 84//55 180//64
f 70//53 71//56 167//64
f 97//72 66//57 162//64
f 84//55 85//58 181//64
