o Icosphere
v 0.000000 -1.000000 0.000000
v 0.723600 -0.447215 0.525720
v -0.276385 -0.447215 0.850640
v -0.894425 -0.447215 0.000000
v -0.276385 -0.447215 -0.850640
v 0.723600 -0.447215 -0.525720
v 0.276385 0.447215 0.850640
v -0.723600 0.447215 0.525720
v -0.723600 0.447215 -0.525720
v 0.276385 0.447215 -0.850640
v 0.894425 0.447215 0.000000
v 0.000000 1.000000 0.000000
v -0.162456 -0.850654 0.499995
v 0.425323 -0.850654 0.309011
v 0.262869 -0.525738 0.809012
v 0.425323 -0.850654 -0.309011
v 0.850648 -0.525736 0.000000
v -0.525730 -0.850652 0.000000
v -0.688189 -0.525736 0.499997
v -0.162456 -0.850654 -0.499995
v -0.688189 -0.525736 -0.499997
v 0.262869 -0.525738 -0.809012
v 0.951058 0.000000 -0.309013
v 0.951058 0.000000 0.309013
v 0.587786 0.000000 0.809017
v 0.000000 0.000000 1.000000
v -0.587786 0.000000 0.809017
v -0.951058 0.000000 0.309013
v -0.951058 0.000000 -0.309013
v -0.587786 0.000000 -0.809017
v 0.000000 0.000000 -1.000000
v 0.587786 0.000000 -0.809017
v 0.688189 0.525736 0.499997
v -0.262869 0.525738 0.809012
v -0.850648 0.525736 0.000000
v -0.262869 0.525738 -0.809012
v 0.688189 0.525736 -0.499997
v 0.525730 0.850652 0.000000
v 0.162456 0.850654 0.499995
v -0.425323 0.850654 0.309011
v -0.425323 0.850654 -0.309011
v 0.162456 0.850654 -0.499995
v -0.228103 -0.674615 0.702042
v -0.084442 -0.961939 0.259889
v 0.597194 -0.674615 0.433882
v 0.221076 -0.961939 0.160619
v 0.512753 -0.505727 0.693775
v -0.007026 -0.505728 0.862665
v 0.597194 -0.674615 -0.433882
v 0.221076 -0.961939 -0.160619
v 0.818272 -0.505726 0.273262
v 0.818272 -0.505726 -0.273262
v -0.738174 -0.674610 0.000000
v -0.273266 -0.961939 0.000000
v -0.822618 -0.505724 0.259890
v -0.501373 -0.505727 0.702043
v -0.228103 -0.674615 -0.702042
v -0.084442 -0.961939 -0.259889
v -0.822618 -0.505724 -0.259890
v -0.501373 -0.505727 -0.702043
v 0.512753 -0.505727 -0.693775
v -0.007026 -0.505728 -0.862665
v 0.870465 -0.232456 -0.433883
v 0.959253 0.232455 -0.160620
v 0.870465 -0.232456 0.433883
v 0.959253 0.232455 0.160620
v 0.681641 -0.232457 0.693779
v 0.449185 0.232457 0.862668
v 0.143661 0.232456 0.961938
v -0.143661 -0.232456 0.961938
v -0.681641 0.232457 0.693779
v -0.449185 -0.232457 0.862668
v -0.870465 0.232456 0.433883
v -0.959253 -0.232455 0.160620
v -0.870465 0.232456 -0.433883
v -0.959253 -0.232455 -0.160620
v -0.681641 0.232457 -0.693779
v -0.449185 -0.232457 -0.862668
v -0.143661 -0.232456 -0.961938
v 0.143661 0.232456 -0.961938
v 0.681641 -0.232457 -0.693779
v 0.449185 0.232457 -0.862668
v 0.501373 0.505727 0.702043
v 0.822618 0.505724 0.259890
v -0.512753 0.505727 0.693775
v 0.007026 0.505728 0.862665
v -0.818272 0.505726 -0.273262
v -0.818272 0.505726 0.273262
v -0.512753 0.505727 -0.693775
v 0.007026 0.505728 -0.862665
v 0.822618 0.505724 -0.259890
v 0.501373 0.505727 -0.702043
v 0.738174 0.674610 0.000000
v 0.273266 0.961939 0.000000
v 0.228103 0.674615 0.702042
v 0.084442 0.961939 0.259889
v -0.597194 0.674615 0.433882
v -0.221076 0.961939 0.160619
v -0.597194 0.674615 -0.433882
v -0.221076 0.961939 -0.160619
v 0.228103 0.674615 -0.702042
v 0.084442 0.961939 -0.259889
v 0.052790 -0.723612 0.688185
v 0.138197 -0.894430 0.425319
v 0.361803 -0.723612 0.587779
v 0.670817 -0.723611 0.162457
v 0.447210 -0.894429 0.000000
v 0.670817 -0.723611 -0.162457
v -0.638195 -0.723609 0.262864
v -0.361800 -0.894429 0.262863
v -0.447211 -0.723612 0.525727
v -0.447211 -0.723612 -0.525727
v -0.361800 -0.894429 -0.262863
v -0.638195 -0.723609 -0.262864
v 0.361803 -0.723612 -0.587779
v 0.138197 -0.894430 -0.425319
v 0.052790 -0.723612 -0.688185
v 0.947213 -0.276396 0.162458
v 0.947213 -0.276396 -0.162458
v 1.000000 0.000000 0.000000
v 0.138199 -0.276397 0.951055
v 0.447216 -0.276397 0.850648
v 0.309017 0.000000 0.951056
v -0.861804 -0.276396 0.425322
v -0.670820 -0.276396 0.688190
v -0.809018 0.000000 0.587783
v -0.670820 -0.276396 -0.688190
v -0.861804 -0.276396 -0.425322
v -0.809018 0.000000 -0.587783
v 0.447216 -0.276397 -0.850648
v 0.138199 -0.276397 -0.951055
v 0.309017 0.000000 -0.951056
v 0.670820 0.276396 0.688190
v 0.809018 0.000000 0.587783
v 0.861804 0.276396 0.425322
v -0.447216 0.276397 0.850648
v -0.309017 0.000000 0.951056
v -0.138199 0.276397 0.951055
v -0.947213 0.276396 -0.162458
v -1.000000 0.000000 0.000000
v -0.947213 0.276396 0.162458
v -0.138199 0.276397 -0.951055
v -0.309017 0.000000 -0.951056
v -0.447216 0.276397 -0.850648
v 0.861804 0.276396 -0.425322
v 0.809018 0.000000 -0.587783
v 0.670820 0.276396 -0.688190
v 0.447211 0.723612 0.525727
v 0.638195 0.723609 0.262864
v 0.361800 0.894429 0.262863
v -0.361803 0.723612 0.587779
v -0.052790 0.723612 0.688185
v -0.138197 0.894430 0.425319
v -0.670817 0.723611 -0.162457
v -0.670817 0.723611 0.162457
v -0.447210 0.894429 0.000000
v -0.052790 0.723612 -0.688185
v -0.361803 0.723612 -0.587779
v -0.138197 0.894430 -0.425319
v 0.638195 0.723609 -0.262864
v 0.447211 0.723612 -0.525727
v 0.361800 0.894429 -0.262863
vn 0.060305 -0.728202 0.682669
vn 0.262856 -0.525712 0.808985
vn -0.009033 -0.505417 0.862819
vn -0.228523 -0.673086 0.703330
vn -0.162450 -0.850642 0.499985
vn -0.276376 -0.447218 0.850642
vn 0.141057 -0.889706 0.434126
vn 0.352458 -0.728202 0.587725
vn 0.425306 -0.850642 0.309000
vn 0.598285 -0.673086 0.434675
vn 0.723594 -0.447218 0.525712
vn 0.514481 -0.505417 0.692709
vn 0.219459 -0.962493 0.159459
vn -0.083834 -0.962493 0.258003
vn 0.000000 -1.000000 0.000000
vn 0.667898 -0.728202 0.153600
vn 0.850642 -0.525712 0.000000
vn 0.817774 -0.505417 0.275216
vn 0.456465 -0.889706 0.000000
vn 0.667898 -0.728202 -0.153600
vn 0.425306 -0.850642 -0.309000
vn 0.598285 -0.673086 -0.434675
vn 0.723594 -0.447218 -0.525712
vn 0.817774 -0.505417 -0.275216
vn 0.219459 -0.962493 -0.159459
vn -0.630634 -0.728202 0.268288
vn -0.688162 -0.525712 0.499985
vn -0.823359 -0.505417 0.258003
vn -0.739525 -0.673086 0.000000
vn -0.525712 -0.850642 0.000000
vn -0.894406 -0.447188 0.000000
vn -0.369274 -0.889706 0.268288
vn -0.450056 -0.728202 0.516831
vn -0.499802 -0.505417 0.703330
vn -0.271279 -0.962493 0.000000
vn -0.450056 -0.728202 -0.516831
vn -0.688162 -0.525712 -0.499985
vn -0.499802 -0.505417 -0.703330
vn -0.228523 -0.673086 -0.703330
vn -0.162450 -0.850642 -0.499985
vn -0.276376 -0.447218 -0.850642
vn -0.369274 -0.889706 -0.268288
vn -0.630634 -0.728202 -0.268288
vn -0.823359 -0.505417 -0.258003
vn -0.083834 -0.962493 -0.258003
vn 0.352458 -0.728202 -0.587725
vn 0.262856 -0.525712 -0.808985
vn 0.514481 -0.505417 -0.692709
vn 0.141057 -0.889706 -0.434126
vn 0.060305 -0.728202 -0.682669
vn -0.009033 -0.505417 -0.862819
vn 0.950011 -0.271706 0.153600
vn 0.951048 0.000000 0.309000
vn 0.869594 -0.234107 0.434675
vn 0.950011 -0.271706 -0.153600
vn 0.999939 -0.010376 0.000000
vn 0.951048 0.000000 -0.309000
vn 0.959014 0.234107 -0.159459
vn 0.894406 0.447188 0.000000
vn 0.959014 0.234107 0.159459
vn 0.869594 -0.234107 -0.434675
vn 0.147465 -0.271706 0.950987
vn 0.000000 0.000000 1.000000
vn -0.144688 -0.234107 0.961364
vn 0.439650 -0.271706 0.856044
vn 0.309000 -0.010376 0.950987
vn 0.587756 0.000000 0.809015
vn 0.448012 0.234107 0.862819
vn 0.276376 0.447218 0.850642
vn 0.144688 0.234107 0.961364
vn 0.682150 -0.234107 0.692709
vn -0.858882 -0.271706 0.434126
vn -0.951048 0.000000 0.309000
vn -0.959014 -0.234107 0.159459
vn -0.678304 -0.271706 0.682669
vn -0.808954 -0.010376 0.587725
vn -0.587756 0.000000 0.809015
vn -0.682150 0.234107 0.692709
vn -0.723594 0.447218 0.525712
vn -0.869594 0.234107 0.434675
vn -0.448012 -0.234107 0.862819
vn -0.678304 -0.271706 -0.682669
vn -0.587756 0.000000 -0.809015
vn -0.448012 -0.234107 -0.862819
vn -0.858882 -0.271706 -0.434126
vn -0.808954 -0.010376 -0.587725
vn -0.951048 0.000000 -0.309000
vn -0.869594 0.234107 -0.434675
vn -0.723594 0.447218 -0.525712
vn -0.682150 0.234107 -0.692709
vn -0.959014 -0.234107 -0.159459
vn 0.439650 -0.271706 -0.856044
vn 0.587756 0.000000 -0.809015
vn 0.682150 -0.234107 -0.692709
vn 0.147465 -0.271706 -0.950987
vn 0.309000 -0.010376 -0.950987
vn 0.000000 0.000000 -1.000000
vn 0.144688 0.234107 -0.961364
vn 0.276376 0.447218 -0.850642
vn 0.448012 0.234107 -0.862819
vn -0.144688 -0.234107 -0.961364
vn 0.678304 0.271706 0.682669
vn 0.688162 0.525712 0.499985
vn 0.499802 0.505417 0.703330
vn 0.808954 0.010376 0.587725
vn 0.858882 0.271706 0.434126
vn 0.823359 0.505417 0.258003
vn -0.439650 0.271706 0.856044
vn -0.262856 0.525712 0.808985
vn -0.514481 0.505417 0.692709
vn -0.309000 0.010376 0.950987
vn -0.147465 0.271706 0.950987
vn 0.009033 0.505417 0.862819
vn -0.950011 0.271706 -0.153600
vn -0.850642 0.525712 0.000000
vn -0.817774 0.505417 -0.275216
vn -0.999939 0.010376 0.000000
vn -0.950011 0.271706 0.153600
vn -0.817774 0.505417 0.275216
vn -0.147465 0.271706 -0.950987
vn -0.262856 0.525712 -0.808985
vn 0.009033 0.505417 -0.862819
vn -0.309000 0.010376 -0.950987
vn -0.439650 0.271706 -0.856044
vn -0.514481 0.505417 -0.692709
vn 0.858882 0.271706 -0.434126
vn 0.688162 0.525712 -0.499985
vn 0.823359 0.505417 -0.258003
vn 0.808954 0.010376 -0.587725
vn 0.678304 0.271706 -0.682669
vn 0.499802 0.505417 -0.703330
vn 0.450056 0.728202 0.516831
vn 0.162450 0.850642 0.499985
vn 0.228523 0.673086 0.703330
vn 0.630634 0.728202 0.268288
vn 0.369274 0.889706 0.268288
vn 0.525712 0.850642 0.000000
vn 0.271279 0.962493 0.000000
vn 0.000000 1.000000 0.000000
vn 0.083834 0.962493 0.258003
vn 0.739525 0.673086 0.000000
vn -0.352458 0.728202 0.587725
vn -0.425306 0.850642 0.309000
vn -0.598285 0.673086 0.434675
vn -0.060305 0.728202 0.682669
vn -0.141057 0.889706 0.434126
vn -0.219459 0.962493 0.159459
vn -0.667898 0.728202 -0.153600
vn -0.425306 0.850642 -0.309000
vn -0.598285 0.673086 -0.434675
vn -0.667898 0.728202 0.153600
vn -0.456465 0.889706 0.000000
vn -0.219459 0.962493 -0.159459
vn -0.060305 0.728202 -0.682669
vn 0.162450 0.850642 -0.499985
vn 0.228523 0.673086 -0.703330
vn -0.352458 0.728202 -0.587725
vn -0.141057 0.889706 -0.434126
vn 0.083834 0.962493 -0.258003
vn 0.630634 0.728202 -0.268288
vn 0.450056 0.728202 -0.516831
vn 0.369274 0.889706 -0.268288
f 103//1 15//2 48//3
f 48//3 43//4 103//1
f 13//5 103//1 43//4
f 43//4 48//3 3//6
f 103//1 13//5 104//7
f 104//7 105//8 103//1
f 15//2 103//1 105//8
f 105//8 104//7 14//9
f 45//10 2//11 47//12
f 47//12 105//8 45//10
f 14//9 45//10 105//8
f 105//8 47//12 15//2
f 46//13 14//9 104//7
f 104//7 44//14 46//13
f 1//15 46//13 44//14
f 44//14 104//7 13//5
f 106//16 17//17 51//18
f 51//18 45//10 106//16
f 14//9 106//16 45//10
f 45//10 51//18 2//11
f 106//16 14//9 107//19
f 107//19 108//20 106//16
f 17//17 106//16 108//20
f 108//20 107//19 16//21
f 49//22 6//23 52//24
f 52//24 108//20 49//22
f 16//21 49//22 108//20
f 108//20 52//24 17//17
f 50//25 16//21 107//19
f 107//19 46//13 50//25
f 1//15 50//25 46//13
f 46//13 107//19 14//9
f 109//26 19//27 55//28
f 55//28 53//29 109//26
f 18//30 109//26 53//29
f 53//29 55//28 4//31
f 109//26 18//30 110//32
f 110//32 111//33 109//26
f 19//27 109//26 111//33
f 111//33 110//32 13//5
f 43//4 3//6 56//34
f 56//34 111//33 43//4
f 13//5 43//4 111//33
f 111//33 56//34 19//27
f 44//14 13//5 110//32
f 110//32 54//35 44//14
f 1//15 44//14 54//35
f 54//35 110//32 18//30
f 112//36 21//37 60//38
f 60//38 57//39 112//36
f 20//40 112//36 57//39
f 57//39 60//38 5//41
f 112//36 20//40 113//42
f 113//42 114//43 112//36
f 21//37 112//36 114//43
f 114//43 113//42 18//30
f 53//29 4//31 59//44
f 59//44 114//43 53//29
f 18//30 53//29 114//43
f 114//43 59//44 21//37
f 54//35 18//30 113//42
f 113//42 58//45 54//35
f 1//15 54//35 58//45
f 58//45 113//42 20//40
f 115//46 22//47 61//48
f 61//48 49//22 115//46
f 16//21 115//46 49//22
f 49//22 61//48 6//23
f 115//46 16//21 116//49
f 116//49 117//50 115//46
f 22//47 115//46 117//50
f 117//50 116//49 20//40
f 57//39 5//41 62//51
f 62//51 117//50 57//39
f 20//40 57//39 117//50
f 117//50 62//51 22//47
f 58//45 20//40 116//49
f 116//49 50//25 58//45
f 1//15 58//45 50//25
f 50//25 116//49 16//21
f 118//52 24//53 65//54
f 65//54 51//18 118//52
f 17//17 118//52 51//18
f 51//18 65//54 2//11
f 118//52 17//17 119//55
f 119//55 120//56 118//52
f 24//53 118//52 120//56
f 120//56 119//55 23//57
f 64//58 11//59 66//60
f 66//60 120//56 64//58
f 23//57 64//58 120//56
f 120//56 66//60 24//53
f 63//61 23//57 119//55
f 119//55 52//24 63//61
f 6//23 63//61 52//24
f 52//24 119//55 17//17
f 121//62 26//63 70//64
f 70//64 48//3 121//62
f 15//2 121//62 48//3
f 48//3 70//64 3//6
f 121//62 15//2 122//65
f 122//65 123//66 121//62
f 26//63 121//62 123//66
f 123//66 122//65 25//67
f 68//68 7//69 69//70
f 69//70 123//66 68//68
f 25//67 68//68 123//66
f 123//66 69//70 26//63
f 67//71 25//67 122//65
f 122//65 47//12 67//71
f 2//11 67//71 47//12
f 47//12 122//65 15//2
f 124//72 28//73 74//74
f 74//74 55//28 124//72
f 19//27 124//72 55//28
f 55//28 74//74 4//31
f 124//72 19//27 125//75
f 125//75 126//76 124//72
f 28//73 124//72 126//76
f 126//76 125//75 27//77
f 71//78 8//79 73//80
f 73//80 126//76 71//78
f 27//77 71//78 126//76
f 126//76 73//80 28//73
f 72//81 27//77 125//75
f 125//75 56//34 72//81
f 3//6 72//81 56//34
f 56//34 125//75 19//27
f 127//82 30//83 78//84
f 78//84 60//38 127//82
f 21//37 127//82 60//38
f 60//38 78//84 5//41
f 127//82 21//37 128//85
f 128//85 129//86 127//82
f 30//83 127//82 129//86
f 129//86 128//85 29//87
f 75//88 9//89 77//90
f 77//90 129//86 75//88
f 29//87 75//88 129//86
f 129//86 77//90 30//83
f 76//91 29//87 128//85
f 128//85 59//44 76//91
f 4//31 76//91 59//44
f 59//44 128//85 21//37
f 130//92 32//93 81//94
f 81//94 61//48 130//92
f 22//47 130//92 61//48
f 61//48 81//94 6//23
f 130//92 22//47 131//95
f 131//95 132//96 130//92
f 32//93 130//92 132//96
f 132//96 131//95 31//97
f 80//98 10//99 82//100
f 82//100 132//96 80//98
f 31//97 80//98 132//96
f 132//96 82//100 32//93
f 79//101 31//97 131//95
f 131//95 62//51 79//101
f 5//41 79//101 62//51
f 62//51 131//95 22//47
f 133//102 33//103 83//104
f 83//104 68//68 133//102
f 25//67 133//102 68//68
f 68//68 83//104 7//69
f 133//102 25//67 134//105
f 134//105 135//106 133//102
f 33//103 133//102 135//106
f 135//106 134//105 24//53
f 66//60 11//59 84//107
f 84//107 135//106 66//60
f 24//53 66//60 135//106
f 135//106 84//107 33//103
f 65//54 24//53 134//105
f 134//105 67//71 65//54
f 2//11 65//54 67//71
f 67//71 134//105 25//67
f 136//108 34//109 85//110
f 85//110 71//78 136//108
f 27//77 136//108 71//78
f 71//78 85//110 8//79
f 136//108 27//77 137//111
f 137//111 138//112 136//108
f 34//109 136//108 138//112
f 138//112 137//111 26//63
f 69//70 7//69 86//113
f 86//113 138//112 69//70
f 26//63 69//70 138//112
f 138//112 86//113 34//109
f 70//64 26//63 137//111
f 137//111 72//81 70//64
f 3//6 70//64 72//81
f 72//81 137//111 27//77
f 139//114 35//115 87//116
f 87//116 75//88 139//114
f 29//87 139//114 75//88
f 75//88 87//116 9//89
f 139//114 29//87 140//117
f 140//117 141//118 139//114
f 35//115 139//114 141//118
f 141//118 140//117 28//73
f 73//80 8//79 88//119
f 88//119 141//118 73//80
f 28//73 73//80 141//118
f 141//118 88//119 35//115
f 74//74 28//73 140//117
f 140//117 76//91 74//74
f 4//31 74//74 76//91
f 76//91 140//117 29//87
f 142//120 36//121 90//122
f 90//122 80//98 142//120
f 31//97 142//120 80//98
f 80//98 90//122 10//99
f 142//120 31//97 143//123
f 143//123 144//124 142//120
f 36//121 142//120 144//124
f 144//124 143//123 30//83
f 77//90 9//89 89//125
f 89//125 144//124 77//90
f 30//83 77//90 144//124
f 144//124 89//125 36//121
f 78//84 30//83 143//123
f 143//123 79//101 78//84
f 5//41 78//84 79//101
f 79//101 143//123 31//97
f 145//126 37//127 91//128
f 91//128 64//58 145//126
f 23//57 145//126 64//58
f 64//58 91//128 11//59
f 145//126 23//57 146//129
f 146//129 147//130 145//126
f 37//127 145//126 147//130
f 147//130 146//129 32//93
f 82//100 10//99 92//131
f 92//131 147//130 82//100
f 32//93 82//100 147//130
f 147//130 92//131 37//127
f 81//94 32//93 146//129
f 146//129 63//61 81//94
f 6//23 81//94 63//61
f 63//61 146//129 23//57
f 148//132 39//133 95//134
f 95//134 83//104 148//132
f 33//103 148//132 83//104
f 83//104 95//134 7//69
f 148//132 33//103 149//135
f 149//135 150//136 148//132
f 39//133 148//132 150//136
f 150//136 149//135 38//137
f 94//138 12//139 96//140
f 96//140 150//136 94//138
f 38//137 94//138 150//136
f 150//136 96//140 39//133
f 93//141 38//137 149//135
f 149//135 84//107 93//141
f 11//59 93//141 84//107
f 84//107 149//135 33//103
f 151//142 40//143 97//144
f 97//144 85//110 151//142
f 34//109 151//142 85//110
f 85//110 97//144 8//79
f 151//142 34//109 152//145
f 152//145 153//146 151//142
f 40//143 151//142 153//146
f 153//146 152//145 39//133
f 96//140 12//139 98//147
f 98//147 153//146 96//140
f 39//133 96//140 153//146
f 153//146 98//147 40//143
f 95//134 39//133 152//145
f 152//145 86//113 95//134
f 7//69 95//134 86//113
f 86//113 152//145 34//109
f 154//148 41//149 99//150
f 99//150 87//116 154//148
f 35//115 154//148 87//116
f 87//116 99//150 9//89
f 154//148 35//115 155//151
f 155//151 156//152 154//148
f 41//149 154//148 156//152
f 156//152 155//151 40//143
f 98//147 12//139 100//153
f 100//153 156//152 98//147
f 40//143 98//147 156//152
f 156//152 100//153 41//149
f 97//144 40//143 155//151
f 155//151 88//119 97//144
f 8//79 97//144 88//119
f 88//119 155//151 35//115
f 157//154 42//155 101//156
f 101//156 90//122 157//154
f 36//121 157//154 90//122
f 90//122 101//156 10//99
f 157//154 36//121 158//157
f 158//157 159//158 157//154
f 42//155 157//154 159//158
f 159//158 158//157 41//149
f 100//153 12//139 102//159
f 102//159 159//158 100//153
f 41//149 100//153 159//158
f 159//158 102//159 42//155
f 99//150 41//149 158//157
f 158//157 89//125 99//150
f 9//89 99//150 89//125
f 89//125 158//157 36//121
f 160//160 38//137 93//141
f 93//141 91//128 160//160
f 37//127 160//160 91//128
f 91//128 93//141 11//59
f 160//160 37//127 161//161
f 161//161 162//162 160//160
f 38//137 160//160 162//162
f 162//162 161//161 42//155
f 102//159 12//139 94//138
f 94//138 162//162 102//159
f 42//155 102//159 162//162
f 162//162 94//138 38//137
f 101//156 42//155 161//161
f 161//161 92//131 101//156
f 10//99 101//156 92//131
f 92//131 161//161 37//127
