o Cube
v 0.500000 -0.500000 -0.500000
v 0.500000 -0.500000 0.500000
v -0.500000 -0.500000 0.500000
v -0.500000 -0.500000 -0.500000
v 0.500000 0.500000 -0.500000
v 0.500000 0.500000 0.500000
v -0.500000 0.500000 0.500000
v -0.500000 0.500000 -0.500000
v -0.500000 0.475000 0.475000
v -0.500000 0.475000 -0.475000
v -0.500000 -0.475000 -0.475000
v -0.500000 -0.475000 0.475000
v 0.475000 0.475000 0.500000
v -0.475000 0.475000 0.500000
v -0.475000 -0.475000 0.500000
v 0.475000 -0.475000 0.500000
v 0.500000 0.475000 -0.475000
v 0.500000 0.475000 0.475000
v 0.500000 -0.475000 0.475000
v 0.500000 -0.475000 -0.475000
v -0.475000 0.500000 0.475000
v -0.475000 0.500000 -0.475000
v 0.475000 0.500000 0.475000
v 0.475000 0.500000 -0.475000
v 0.475000 0.475000 -0.500000
v -0.475000 0.475000 -0.500000
v -0.475000 -0.475000 -0.500000
v 0.475000 -0.475000 -0.500000
v -0.475000 -0.500000 0.475000
v -0.475000 -0.500000 -0.475000
v 0.475000 -0.500000 0.475000
v 0.475000 -0.500000 -0.475000
vn -1.000000 0.000000 -0.000000
vn -0.000000 -0.000000 1.000000
vn 1.000000 0.000001 0.000001
vn 1.000000 0.000000 0.000001
vn 1.000000 -0.000000 0.000000
vn 0.000000 1.000000 0.000000
vn 0.000000 0.000000 -1.000000
vn -0.000000 -1.000000 0.000000
f 7//1 8//1 10//1
f 7//1 10//1 9//1
f 8//1 4//1 11//1
f 8//1 11//1 10//1
f 3//1 7//1 9//1
f 3//1 9//1 12//1
f 4//1 3//1 12//1
f 4//1 12//1 11//1
f 6//2 7//2 14//2
f 6//2 14//2 13//2
f 7//2 3//2 15//2
f 7//2 15//2 14//2
f 2//2 6//2 13//2
f 2//2 13//2 16//2
f 3//2 2//2 16//2
f 3//2 16//2 15//2
f 5//3 6//3 18//3
f 5//3 18//3 17//3
f 6//4 2//4 19//4
f 6//4 19//4 18//4
f 1//5 5//5 17//5
f 1//5 17//5 20//5
f 2//5 1//5 20//5
f 2//5 20//5 19//5
f 8//6 7//6 21//6
f 8//6 21//6 22//6
f 7//6 6//6 23//6
f 7//6 23//6 21//6
f 5//6 8//6 22//6
f 5//6 22//6 24//6
f 6//6 5//6 24//6
f 6//6 24//6 23//6
f 8//7 5//7 25//7
f 8//7 25//7 26//7
f 4//7 8//7 26//7
f 4//7 26//7 27//7
f 5//7 1//7 28//7
f 5//7 28//7 25//7
f 1//7 4//7 27//7
f 1//7 27//7 28//7
f 3//8 4//8 30//8
f 3//8 30//8 29//8
f 2//8 3//8 29//8
f 2//8 29//8 31//8
f 4//8 1//8 32//8
f 4//8 32//8 30//8
f 1//8 2//8 31//8
f 1//8 31//8 32//8
